<svg width="326" height="149" viewBox="0 0 326 149" fill="none" xmlns="http://www.w3.org/2000/svg">
<g clip-path="url(#clip0)">
<g opacity="0.33">
<path opacity="0.33" d="M162.7 82.5H169.9V111.4C169.9 112.3 169.7 113.1 169.4 114C168.3 117.1 166.1 118.7 162.7 118.7L141 93.3V118.6H133.8V89.7C133.8 86.2 135.4 83.9 138.7 82.9C139.4 82.6 140.2 82.5 141 82.5L162.7 107.8V82.5Z" fill="url(#paint0_linear)"/>
<path opacity="0.33" d="M201.6 82.5C202.4 82.5 203.2 82.6 203.9 82.9C207.2 83.9 208.8 86.2 208.8 89.7V111.4C208.8 115 207.2 117.2 203.9 118.2C203.2 118.4 202.4 118.6 201.6 118.6H179.9C179.1 118.6 178.3 118.4 177.6 118.2C174.3 117.2 172.7 114.9 172.7 111.4V89.7C172.7 86.2 174.3 83.9 177.6 82.9C178.3 82.6 179.1 82.5 179.9 82.5H201.6ZM201.6 111.4V89.7H179.9V111.4H201.6Z" fill="url(#paint1_linear)"/>
<path opacity="0.33" d="M240.5 82.6C241.3 82.6 242.1 82.7 242.8 82.9C246.1 83.9 247.7 86.2 247.7 89.8V111.5C247.7 112.3 247.5 113 247.3 113.8C246.3 117.1 244 118.8 240.5 118.8V122.4H233.3V118.7H218.8C215.3 118.7 213 117 212 113.7C211.8 113 211.6 112.2 211.6 111.4V89.7C211.6 88.9 211.7 88.1 212 87.4C213 84.1 215.3 82.5 218.8 82.5L240.5 82.6ZM218.8 111.5H240.5V89.8H218.8V111.5Z" fill="url(#paint2_linear)"/>
<path opacity="0.33" d="M279.5 82.5C280.3 82.5 281.1 82.6 281.8 82.9C285.1 83.9 286.7 86.2 286.7 89.7V111.4C286.7 115 285.1 117.2 281.8 118.2C281.1 118.4 280.3 118.6 279.5 118.6H257.8C257 118.6 256.2 118.4 255.5 118.2C252.2 117.2 250.6 114.9 250.6 111.4V89.7C250.6 86.2 252.2 83.9 255.5 82.9C256.2 82.6 257 82.5 257.8 82.5H279.5ZM279.5 111.4V89.7H257.8V111.4H279.5Z" fill="url(#paint3_linear)"/>
<path opacity="0.33" d="M318.399 82.5C321.899 82.5 324.199 84.1 325.199 87.4C325.499 88.1 325.599 88.9 325.599 89.7V111.4C325.599 115 323.999 117.2 320.699 118.2C319.999 118.4 319.199 118.6 318.399 118.6H289.399V82.5H318.399ZM296.699 111.4H318.399V89.7H296.699V111.4Z" fill="url(#paint4_linear)"/>
</g>
<path d="M162.7 82.5H169.9V111.4C169.9 112.3 169.7 113.1 169.4 114C168.3 117.1 166.1 118.7 162.7 118.7L141 93.4V118.7H133.8V89.7C133.8 86.2 135.4 83.9 138.7 82.9C139.4 82.6 140.2 82.5 141 82.5L162.7 107.9V82.5Z" fill="url(#paint5_linear)"/>
<path d="M201.6 82.5C202.4 82.5 203.2 82.6 203.9 82.9C207.2 83.9 208.8 86.2 208.8 89.7V111.4C208.8 114.9 207.2 117.2 203.9 118.2C203.2 118.5 202.4 118.6 201.6 118.6H179.9C179.1 118.6 178.3 118.5 177.6 118.2C174.3 117.2 172.7 114.9 172.7 111.4V89.7C172.7 86.2 174.3 83.9 177.6 82.9C178.3 82.6 179.1 82.5 179.9 82.5H201.6ZM201.6 111.4V89.7H179.9V111.4H201.6Z" fill="url(#paint6_linear)"/>
<path d="M240.5 82.6C241.3 82.6 242.1 82.7 242.8 82.9C246.1 83.9 247.7 86.2 247.7 89.8V111.5C247.7 112.3 247.5 113 247.3 113.8C246.3 117.1 244 118.8 240.5 118.8V122.4H233.3V118.8H218.8C215.3 118.8 213 117.1 212 113.8C211.8 113.1 211.6 112.3 211.6 111.5V89.8C211.6 89 211.7 88.2 212 87.5C213 84.2 215.3 82.6 218.8 82.6H240.5ZM218.8 111.6H240.5V89.8H218.8V111.6Z" fill="url(#paint7_linear)"/>
<path d="M279.5 82.5C280.3 82.5 281.1 82.6 281.8 82.9C285.1 83.9 286.7 86.2 286.7 89.7V111.4C286.7 114.9 285.1 117.2 281.8 118.2C281.1 118.5 280.3 118.6 279.5 118.6H257.8C257 118.6 256.2 118.5 255.5 118.2C252.2 117.2 250.6 114.9 250.6 111.4V89.7C250.6 86.2 252.2 83.9 255.5 82.9C256.2 82.6 257 82.5 257.8 82.5H279.5ZM279.5 111.4V89.7H257.8V111.4H279.5Z" fill="url(#paint8_linear)"/>
<path d="M318.4 82.5C321.9 82.5 324.2 84.1 325.2 87.4C325.5 88.1 325.6 88.9 325.6 89.7V111.4C325.6 114.9 324 117.2 320.7 118.2C320 118.5 319.2 118.6 318.4 118.6H289.4V82.5H318.4ZM296.7 111.4H318.4V89.7H296.7V111.4Z" fill="url(#paint9_linear)"/>
<path d="M133.7 29.7V37.9H143.3V37.7H160.3V51.2C160.4 51.8 160.2 52.4 159.9 52.9C159.5 53.3 158.9 53.5 158.3 53.4H133.7V61.7H160.6C162.2 61.7 163.7 61.5999 165.3 61.2999C166.3 61.0999 167.3 60.6 168 59.9C168.7 59.2 169.1 58.1999 169.3 57.2999C169.5 56 169.6 54.6 169.6 53.2V29.7H133.7Z" fill="url(#paint10_linear)"/>
<path d="M257.8 20.1V28.1H267.5V20.1H257.8ZM269.5 20.1V28.1H279.2V20.1H269.5Z" fill="url(#paint11_linear)"/>
<path d="M315.9 20.1V28H325.6V20.1H315.9Z" fill="url(#paint12_linear)"/>
<path d="M325.6 29.7H316V50.6C316 51 316 51.5 315.9 51.9C315.9 52.2 315.7 52.5 315.5 52.7C315.3 52.9 315 53.1 314.7 53.1C314.3 53.2 313.9 53.2 313.5 53.2H286.9V53V29.4H250.4V53H205.4V29.4H172V61.4H196V74.2H197.9C199.2 74.2 200.5 74.1 201.8 73.7C202.7 73.5 203.5 73 204.1 72.4C204.7 71.8 205 71 205.2 70.2C205.4 69.2 205.5 68.2 205.5 67.2V61.4H206.8H259.2C261.3 61.4 263.5 61.4 265.7 61.4H281L318.5 61.7C319.7 61.7 320.9 61.6 322 61.2C322.8 60.9 323.6 60.5 324.2 59.8C324.7 59.1 325.1 58.4 325.3 57.5C325.5 56.5 325.6 55.4 325.6 54.4V29.7ZM196 50.7C196 51.1 196 51.5 195.9 51.8C195.8 52.1 195.6 52.3 195.4 52.5C195.1 52.7 194.8 52.9 194.4 52.9C193.9 53 193.3 53 192.8 53H181.5V37.4H196V50.7ZM277.5 50.6C277.5 51 277.5 51.3 277.4 51.7C277.3 52 277.2 52.3 277 52.5C276.8 52.7 276.6 52.9 276.3 52.9C275.9 53 275.5 53 275.1 53C274.6 53 273.9 53 273.1 53H262.2C261.4 53 260.7 53 260.2 53V37.4H277.5V50.6Z" fill="url(#paint13_linear)"/>
<path d="M0 118.9C0 118.9 26.3 60 22.2 29.7H58.4C58.4 29.7 59.2 59.5 38.1 118.7L0 118.9Z" fill="url(#paint14_linear)"/>
<path d="M102.7 148.5H67.8002C67.8002 148.5 62.0002 82.1 22.2002 29.7H58.4002C58.5002 29.7 105.7 97.8 102.7 148.5Z" fill="#0FD3A4"/>
<path d="M102.7 148.5H67.8002C67.8002 148.5 62.0002 82.1 22.2002 29.7H58.4002C58.5002 29.7 105.7 97.8 102.7 148.5Z" fill="url(#paint15_linear)"/>
<path d="M106.2 0H68.5998C68.5998 0 86.3998 75.5 67.7998 148.5H103.6C103.6 148.5 126.5 82.6 106.2 0Z" fill="#4BA8E8"/>
<path d="M106.2 0H68.5998C68.5998 0 86.3998 75.5 67.7998 148.5H103.6C103.6 148.5 126.5 82.6 106.2 0Z" fill="url(#paint16_linear)"/>
<path opacity="0.17" d="M22.1996 28.3C22.1996 28.3 23.5996 50 20.5996 55.5C20.5996 55.5 35.6996 58.9001 50.2996 79.4001C50.2996 79.3001 33.1996 39.3 22.1996 28.3Z" fill="#878686"/>
<path opacity="0.18" d="M75.8996 57.7C75.8996 57.7 61.3996 97 55.0996 92.3C55.0996 92.3 62.5996 107.6 67.7996 148.5C67.7996 148.5 80.8996 92.2999 75.8996 57.7Z" fill="#878686"/>
</g>
<defs>
<linearGradient id="paint0_linear" x1="135.62" y1="99.7011" x2="517.32" y2="119.591" gradientUnits="userSpaceOnUse">
<stop stop-color="#2484C6"/>
<stop offset="0.1" stop-color="#2287C2" stop-opacity="0.96"/>
<stop offset="0.27" stop-color="#1E8EB6" stop-opacity="0.84"/>
<stop offset="0.47" stop-color="#1799A2" stop-opacity="0.64"/>
<stop offset="0.71" stop-color="#0DA987" stop-opacity="0.37"/>
<stop offset="0.98" stop-color="#01BD64" stop-opacity="0.03"/>
<stop offset="1" stop-color="#00BF61" stop-opacity="0"/>
</linearGradient>
<linearGradient id="paint1_linear" x1="135.73" y1="97.6776" x2="517.42" y2="117.568" gradientUnits="userSpaceOnUse">
<stop stop-color="#2484C6"/>
<stop offset="0.1" stop-color="#2287C2" stop-opacity="0.96"/>
<stop offset="0.27" stop-color="#1E8EB6" stop-opacity="0.84"/>
<stop offset="0.47" stop-color="#1799A2" stop-opacity="0.64"/>
<stop offset="0.71" stop-color="#0DA987" stop-opacity="0.37"/>
<stop offset="0.98" stop-color="#01BD64" stop-opacity="0.03"/>
<stop offset="1" stop-color="#00BF61" stop-opacity="0"/>
</linearGradient>
<linearGradient id="paint2_linear" x1="135.749" y1="97.196" x2="517.449" y2="117.086" gradientUnits="userSpaceOnUse">
<stop stop-color="#2484C6"/>
<stop offset="0.1" stop-color="#2287C2" stop-opacity="0.96"/>
<stop offset="0.27" stop-color="#1E8EB6" stop-opacity="0.84"/>
<stop offset="0.47" stop-color="#1799A2" stop-opacity="0.64"/>
<stop offset="0.71" stop-color="#0DA987" stop-opacity="0.37"/>
<stop offset="0.98" stop-color="#01BD64" stop-opacity="0.03"/>
<stop offset="1" stop-color="#00BF61" stop-opacity="0"/>
</linearGradient>
<linearGradient id="paint3_linear" x1="135.939" y1="93.6311" x2="517.63" y2="113.521" gradientUnits="userSpaceOnUse">
<stop stop-color="#2484C6"/>
<stop offset="0.1" stop-color="#2287C2" stop-opacity="0.96"/>
<stop offset="0.27" stop-color="#1E8EB6" stop-opacity="0.84"/>
<stop offset="0.47" stop-color="#1799A2" stop-opacity="0.64"/>
<stop offset="0.71" stop-color="#0DA987" stop-opacity="0.37"/>
<stop offset="0.98" stop-color="#01BD64" stop-opacity="0.03"/>
<stop offset="1" stop-color="#00BF61" stop-opacity="0"/>
</linearGradient>
<linearGradient id="paint4_linear" x1="136.029" y1="91.799" x2="517.729" y2="111.689" gradientUnits="userSpaceOnUse">
<stop stop-color="#2484C6"/>
<stop offset="0.1" stop-color="#2287C2" stop-opacity="0.96"/>
<stop offset="0.27" stop-color="#1E8EB6" stop-opacity="0.84"/>
<stop offset="0.47" stop-color="#1799A2" stop-opacity="0.64"/>
<stop offset="0.71" stop-color="#0DA987" stop-opacity="0.37"/>
<stop offset="0.98" stop-color="#01BD64" stop-opacity="0.03"/>
<stop offset="1" stop-color="#00BF61" stop-opacity="0"/>
</linearGradient>
<linearGradient id="paint5_linear" x1="135.619" y1="99.7661" x2="517.309" y2="119.656" gradientUnits="userSpaceOnUse">
<stop stop-color="#2484C6"/>
<stop offset="0.1" stop-color="#2287C2" stop-opacity="0.96"/>
<stop offset="0.27" stop-color="#1E8EB6" stop-opacity="0.84"/>
<stop offset="0.47" stop-color="#1799A2" stop-opacity="0.64"/>
<stop offset="0.71" stop-color="#0DA987" stop-opacity="0.37"/>
<stop offset="0.98" stop-color="#01BD64" stop-opacity="0.03"/>
<stop offset="1" stop-color="#00BF61" stop-opacity="0"/>
</linearGradient>
<linearGradient id="paint6_linear" x1="135.72" y1="97.7278" x2="517.42" y2="117.618" gradientUnits="userSpaceOnUse">
<stop stop-color="#2484C6"/>
<stop offset="0.1" stop-color="#2287C2" stop-opacity="0.96"/>
<stop offset="0.27" stop-color="#1E8EB6" stop-opacity="0.84"/>
<stop offset="0.47" stop-color="#1799A2" stop-opacity="0.64"/>
<stop offset="0.71" stop-color="#0DA987" stop-opacity="0.37"/>
<stop offset="0.98" stop-color="#01BD64" stop-opacity="0.03"/>
<stop offset="1" stop-color="#00BF61" stop-opacity="0"/>
</linearGradient>
<linearGradient id="paint7_linear" x1="135.749" y1="97.2461" x2="517.449" y2="117.136" gradientUnits="userSpaceOnUse">
<stop stop-color="#2484C6"/>
<stop offset="0.1" stop-color="#2287C2" stop-opacity="0.96"/>
<stop offset="0.27" stop-color="#1E8EB6" stop-opacity="0.84"/>
<stop offset="0.47" stop-color="#1799A2" stop-opacity="0.64"/>
<stop offset="0.71" stop-color="#0DA987" stop-opacity="0.37"/>
<stop offset="0.98" stop-color="#01BD64" stop-opacity="0.03"/>
<stop offset="1" stop-color="#00BF61" stop-opacity="0"/>
</linearGradient>
<linearGradient id="paint8_linear" x1="135.929" y1="93.6815" x2="517.63" y2="113.572" gradientUnits="userSpaceOnUse">
<stop stop-color="#2484C6"/>
<stop offset="0.1" stop-color="#2287C2" stop-opacity="0.96"/>
<stop offset="0.27" stop-color="#1E8EB6" stop-opacity="0.84"/>
<stop offset="0.47" stop-color="#1799A2" stop-opacity="0.64"/>
<stop offset="0.71" stop-color="#0DA987" stop-opacity="0.37"/>
<stop offset="0.98" stop-color="#01BD64" stop-opacity="0.03"/>
<stop offset="1" stop-color="#00BF61" stop-opacity="0"/>
</linearGradient>
<linearGradient id="paint9_linear" x1="136.031" y1="91.824" x2="517.731" y2="111.714" gradientUnits="userSpaceOnUse">
<stop stop-color="#2484C6"/>
<stop offset="0.1" stop-color="#2287C2" stop-opacity="0.96"/>
<stop offset="0.27" stop-color="#1E8EB6" stop-opacity="0.84"/>
<stop offset="0.47" stop-color="#1799A2" stop-opacity="0.64"/>
<stop offset="0.71" stop-color="#0DA987" stop-opacity="0.37"/>
<stop offset="0.98" stop-color="#01BD64" stop-opacity="0.03"/>
<stop offset="1" stop-color="#00BF61" stop-opacity="0"/>
</linearGradient>
<linearGradient id="paint10_linear" x1="137.012" y1="44.9445" x2="521.632" y2="64.9845" gradientUnits="userSpaceOnUse">
<stop stop-color="#2484C6"/>
<stop offset="0.1" stop-color="#2287C2" stop-opacity="0.96"/>
<stop offset="0.27" stop-color="#1E8EB6" stop-opacity="0.84"/>
<stop offset="0.47" stop-color="#1799A2" stop-opacity="0.64"/>
<stop offset="0.71" stop-color="#0DA987" stop-opacity="0.37"/>
<stop offset="0.98" stop-color="#01BD64" stop-opacity="0.03"/>
<stop offset="1" stop-color="#00BF61" stop-opacity="0"/>
</linearGradient>
<linearGradient id="paint11_linear" x1="138.451" y1="17.2927" x2="523.071" y2="37.3428" gradientUnits="userSpaceOnUse">
<stop stop-color="#2484C6"/>
<stop offset="0.1" stop-color="#2287C2" stop-opacity="0.96"/>
<stop offset="0.27" stop-color="#1E8EB6" stop-opacity="0.84"/>
<stop offset="0.47" stop-color="#1799A2" stop-opacity="0.64"/>
<stop offset="0.71" stop-color="#0DA987" stop-opacity="0.37"/>
<stop offset="0.98" stop-color="#01BD64" stop-opacity="0.03"/>
<stop offset="1" stop-color="#00BF61" stop-opacity="0"/>
</linearGradient>
<linearGradient id="paint12_linear" x1="138.59" y1="14.5497" x2="523.221" y2="34.5896" gradientUnits="userSpaceOnUse">
<stop stop-color="#2484C6"/>
<stop offset="0.1" stop-color="#2287C2" stop-opacity="0.96"/>
<stop offset="0.27" stop-color="#1E8EB6" stop-opacity="0.84"/>
<stop offset="0.47" stop-color="#1799A2" stop-opacity="0.64"/>
<stop offset="0.71" stop-color="#0DA987" stop-opacity="0.37"/>
<stop offset="0.98" stop-color="#01BD64" stop-opacity="0.03"/>
<stop offset="1" stop-color="#00BF61" stop-opacity="0"/>
</linearGradient>
<linearGradient id="paint13_linear" x1="136.982" y1="45.4882" x2="521.602" y2="65.5282" gradientUnits="userSpaceOnUse">
<stop stop-color="#2484C6"/>
<stop offset="0.1" stop-color="#2287C2" stop-opacity="0.96"/>
<stop offset="0.27" stop-color="#1E8EB6" stop-opacity="0.84"/>
<stop offset="0.47" stop-color="#1799A2" stop-opacity="0.64"/>
<stop offset="0.71" stop-color="#0DA987" stop-opacity="0.37"/>
<stop offset="0.98" stop-color="#01BD64" stop-opacity="0.03"/>
<stop offset="1" stop-color="#00BF61" stop-opacity="0"/>
</linearGradient>
<linearGradient id="paint14_linear" x1="-1.8096" y1="97.1265" x2="82.4604" y2="36.8365" gradientUnits="userSpaceOnUse">
<stop stop-color="#2484C6"/>
<stop offset="0.1" stop-color="#2287C2" stop-opacity="0.96"/>
<stop offset="0.27" stop-color="#1E8EB6" stop-opacity="0.84"/>
<stop offset="0.47" stop-color="#1799A2" stop-opacity="0.64"/>
<stop offset="0.71" stop-color="#0DA987" stop-opacity="0.37"/>
<stop offset="0.98" stop-color="#01BD64" stop-opacity="0.03"/>
<stop offset="1" stop-color="#00BF61" stop-opacity="0"/>
</linearGradient>
<linearGradient id="paint15_linear" x1="22.2202" y1="89.0899" x2="102.797" y2="89.0899" gradientUnits="userSpaceOnUse">
<stop stop-color="#00B42F"/>
<stop offset="1" stop-color="#2484C6" stop-opacity="0"/>
</linearGradient>
<linearGradient id="paint16_linear" x1="72.1883" y1="95.2891" x2="129.968" y2="7.74901" gradientUnits="userSpaceOnUse">
<stop stop-color="#2484C6"/>
<stop offset="0.1" stop-color="#2287C2" stop-opacity="0.96"/>
<stop offset="0.27" stop-color="#1E8EB6" stop-opacity="0.84"/>
<stop offset="0.47" stop-color="#1799A2" stop-opacity="0.64"/>
<stop offset="0.71" stop-color="#0DA987" stop-opacity="0.37"/>
<stop offset="0.98" stop-color="#01BD64" stop-opacity="0.03"/>
<stop offset="1" stop-color="#00BF61" stop-opacity="0"/>
</linearGradient>
<clipPath id="clip0">
<rect width="325.7" height="148.5" fill="white"/>
</clipPath>
</defs>
</svg>
